<svg version="1.1" id="Layer_1" xmlns="http://www.w3.org/2000/svg" xmlns:xlink="http://www.w3.org/1999/xlink" x="0px" y="0px"
	 width="100%" viewBox="0 0 1563 1563" enable-background="new 0 0 1563 1563" xml:space="preserve">
<path fill="#000000" opacity="1.000000" stroke="none" 
	d="
M1450.000000,1564.000000 
	C966.666809,1564.000000 483.833618,1564.000000 1.000324,1564.000000 
	C1.000216,1043.000244 1.000216,522.000610 1.000108,1.000673 
	C521.999573,1.000449 1042.999146,1.000449 1563.999023,1.000224 
	C1563.999268,521.999390 1563.999268,1042.998779 1563.999634,1563.999023 
	C1526.166626,1564.000000 1488.333374,1564.000000 1450.000000,1564.000000 
M1087.574951,865.314819 
	C1088.614380,866.133850 1089.599609,867.556458 1090.703613,867.655334 
	C1093.654907,867.919739 1096.800659,868.115479 1099.575928,867.317932 
	C1100.874268,866.944824 1102.682739,863.397217 1102.206055,862.706970 
	C1100.658936,860.466675 1098.171143,858.871521 1096.017944,857.060974 
	C1095.792969,856.871826 1095.266602,857.010681 1095.080322,856.810791 
	C1094.171875,855.835938 1093.331421,854.797607 1092.466919,853.781799 
	C1093.865967,853.500366 1095.313477,852.855713 1096.651367,853.033813 
	C1098.162231,853.234863 1099.574585,854.175476 1101.613770,855.042908 
	C1101.291016,849.294128 1097.994995,849.104980 1094.553833,849.051697 
	C1091.301514,849.001343 1088.563721,849.545837 1088.092773,853.544617 
	C1087.666748,857.164124 1089.230591,859.192261 1092.732300,859.948853 
	C1093.849976,860.190308 1095.044189,860.502563 1095.954102,861.138977 
	C1096.627930,861.610229 1096.897949,862.658752 1097.347778,863.450195 
	C1096.375366,863.898376 1095.326416,864.820923 1094.449097,864.679321 
	C1093.241943,864.484558 1092.186279,863.443909 1091.027344,862.838745 
	C1088.629761,861.586731 1087.222656,862.223511 1086.201904,864.998596 
	C1084.842163,864.128296 1082.402344,863.360779 1082.307983,862.369995 
	C1081.881592,857.891113 1080.161621,852.686646 1086.735962,850.607849 
	C1084.871338,849.189087 1083.440186,848.222656 1082.161499,847.084839 
	C1081.281982,846.302307 1080.613770,845.282104 1079.851196,844.368103 
	C1079.167480,845.383972 1078.510864,846.419312 1077.792725,847.410217 
	C1077.039307,848.450256 1076.227051,849.447632 1075.440552,850.463623 
	C1075.934326,850.461975 1076.428101,850.460388 1076.921875,850.458740 
	C1077.293701,854.876709 1077.422607,859.336304 1078.168091,863.690369 
	C1078.430786,865.224976 1079.974854,867.333008 1081.335938,867.704163 
	C1083.463867,868.284302 1086.607544,868.915161 1087.574951,865.314819 
M1103.927612,657.463867 
	C1096.415161,671.666992 1102.545166,681.899231 1118.546997,681.995667 
	C1131.912964,682.076172 1145.278076,682.284607 1159.266113,682.443542 
	C1158.761353,691.475708 1158.388306,699.362671 1157.861572,707.239319 
	C1157.323364,715.286621 1156.339111,723.319031 1156.207642,731.368713 
	C1156.172241,733.529297 1158.030762,736.408142 1159.888794,737.783325 
	C1165.446045,741.896240 1171.400269,741.884583 1177.932129,739.153442 
	C1184.967529,736.211731 1184.458130,730.073669 1184.846436,724.699036 
	C1185.929932,709.701294 1186.227417,694.648621 1187.049927,679.629333 
	C1187.435669,672.588379 1188.327148,665.575500 1188.964478,658.547668 
	C1189.236816,655.545349 1187.450439,655.043091 1184.911621,654.973206 
	C1176.649902,654.746033 1168.395630,654.243896 1160.133667,654.027466 
	C1144.548584,653.619263 1128.959717,653.128662 1113.373901,653.177979 
	C1110.283081,653.187744 1107.199585,655.469543 1103.927612,657.463867 
M1065.391113,694.210754 
	C1055.686401,699.401794 1053.237915,710.160950 1059.823364,718.469543 
	C1062.475708,721.815979 1065.994751,722.949951 1070.098145,722.985229 
	C1084.962524,723.113037 1099.826660,723.293457 1115.101807,723.458557 
	C1114.682373,729.339294 1114.418701,734.077820 1113.988647,738.801208 
	C1113.437866,744.849121 1112.698975,750.879944 1112.142944,756.927429 
	C1111.706055,761.679321 1110.948242,766.468384 1111.177246,771.200073 
	C1111.579590,779.515991 1122.892944,784.770325 1131.581177,781.162842 
	C1136.298462,779.204224 1139.794067,776.548950 1139.992310,770.937988 
	C1140.272583,763.009216 1140.535156,755.076355 1141.040039,747.160156 
	C1141.489990,740.108154 1142.577393,733.086914 1142.809448,726.033203 
	C1143.122925,716.502197 1142.887451,706.953125 1142.887451,697.009766 
	C1131.971191,696.370056 1120.483276,695.502014 1108.978882,695.072083 
	C1094.737427,694.539795 1080.482544,694.370850 1065.391113,694.210754 
M474.026611,772.796387 
	C474.021790,780.144775 473.140839,787.623047 474.206665,794.812744 
	C476.047241,807.228760 482.860535,816.791809 494.235565,822.597900 
	C504.681091,827.929504 515.787842,829.231567 527.210144,826.787842 
	C537.510742,824.584045 546.028625,819.451721 552.072449,810.552490 
	C559.939819,798.968140 561.246643,786.311035 558.454346,772.950562 
	C556.334351,762.806335 551.533325,754.458557 542.876587,748.306885 
	C531.861267,740.479004 519.507385,739.503296 506.894989,741.321228 
	C498.611267,742.515381 491.140350,746.199524 484.971283,752.425110 
	C479.440430,758.006836 476.528961,764.780334 474.026611,772.796387 
M1076.487793,813.980957 
	C1073.393799,814.028198 1071.127319,812.460510 1071.077515,809.488403 
	C1070.870605,797.135803 1070.990723,784.777710 1070.990723,771.976807 
	C1074.001221,771.976807 1077.481567,772.192017 1080.923706,771.921082 
	C1085.018921,771.598633 1087.084106,769.067871 1086.957520,764.967163 
	C1086.834351,760.978088 1084.691772,758.964844 1080.658203,758.994446 
	C1077.217163,759.019653 1073.775879,758.999634 1069.982544,758.999634 
	C1069.982544,756.743835 1069.983398,755.104553 1069.982422,753.465210 
	C1069.981323,751.632507 1070.038696,749.797363 1069.963623,747.967651 
	C1069.803589,744.073425 1065.818726,740.186218 1062.030640,740.158630 
	C1057.812134,740.127869 1054.175781,743.551758 1054.042847,747.864014 
	C1053.931519,751.471130 1054.019897,755.084473 1054.019897,758.181458 
	C1049.611816,759.092407 1045.894531,759.860657 1042.004150,760.664612 
	C1042.004150,756.610474 1041.951172,751.974060 1042.021362,747.339417 
	C1042.074951,743.816101 1040.356812,741.856201 1037.032959,741.008179 
	C1030.480957,739.336670 1026.076782,742.799500 1026.062866,749.881287 
	C1026.018921,772.206665 1026.044800,794.532227 1026.044067,816.857727 
	C1026.044067,817.357544 1026.021606,817.859070 1026.053833,818.356934 
	C1026.380371,823.392761 1029.627197,826.193481 1034.901733,825.999695 
	C1040.128906,825.807556 1041.995361,823.772705 1042.002930,818.169067 
	C1042.016968,807.839355 1042.004761,797.509644 1042.004028,787.179932 
	C1042.003540,781.137390 1042.003906,775.094910 1042.003906,769.994080 
	C1046.148682,770.977661 1049.945312,771.878601 1054.017212,772.844910 
	C1054.017212,776.681885 1053.918701,780.664246 1054.037231,784.640137 
	C1054.308350,793.738708 1054.230225,802.881287 1055.165771,811.915710 
	C1055.898315,818.991760 1059.861816,824.507507 1067.124878,826.506958 
	C1074.899414,828.647156 1082.878906,829.802795 1089.128784,823.062622 
	C1090.595703,821.480530 1091.262207,817.949158 1090.554443,815.923584 
	C1089.942139,814.171387 1086.953125,812.476929 1084.839966,812.225525 
	C1082.427979,811.938721 1079.822876,813.277100 1076.487793,813.980957 
M935.988281,767.800537 
	C936.230530,764.104736 935.743774,760.439941 931.623840,759.403076 
	C927.253967,758.303345 922.727112,758.231384 920.110596,763.051392 
	C919.231018,762.609131 918.627197,762.351562 918.068909,762.018005 
	C903.100708,753.074829 883.963318,756.818176 874.560608,771.947693 
	C868.692505,781.389771 868.038391,791.666931 870.041199,802.305481 
	C873.160278,818.873413 887.757690,831.078796 905.078186,827.026550 
	C910.262695,825.813538 915.345886,824.167664 920.631714,822.676025 
	C922.959534,826.967712 927.451782,826.589111 931.615845,825.599548 
	C935.751709,824.616638 936.045044,820.926208 936.027527,817.232544 
	C935.950867,801.066711 935.991150,784.900391 935.988281,767.800537 
M774.009338,816.420349 
	C776.560425,810.494141 780.108337,804.783875 781.449402,798.595459 
	C784.022888,786.720764 779.390015,770.513000 767.926697,763.421631 
	C757.781677,757.145630 747.063049,755.594727 735.541382,758.807678 
	C727.315369,761.101624 720.478760,765.283936 716.604614,773.021851 
	C714.312134,777.600708 712.128418,782.553284 711.436951,787.551086 
	C709.754028,799.714966 712.829712,811.148193 722.160767,819.300598 
	C736.768677,832.063171 760.983704,830.508240 774.009338,816.420349 
M817.551331,822.972168 
	C822.952942,828.292419 829.320007,827.315186 832.741516,820.593201 
	C835.045776,816.066101 837.223022,811.474304 839.526672,806.946777 
	C848.588257,789.136841 857.715759,771.360168 866.736572,753.529541 
	C870.040161,746.999634 866.723328,741.986023 859.491516,741.954346 
	C854.754456,741.933594 852.906555,745.301331 851.198975,748.612305 
	C843.014771,764.481262 835.000732,780.437866 826.895386,796.347656 
	C826.281677,797.552246 825.428040,798.634644 824.521790,800.025879 
	C822.500122,796.303467 820.675598,793.023682 818.924072,789.705322 
	C811.357971,775.370972 803.685120,761.090576 796.328735,746.649170 
	C793.678833,741.447266 789.272949,740.829041 784.286804,743.008484 
	C779.969421,744.895630 779.304504,748.486694 781.969849,753.704407 
	C793.662720,776.594788 805.393066,799.466003 817.551331,822.972168 
M594.550598,759.879456 
	C591.513794,761.471924 588.476990,763.064392 585.441956,764.655945 
	C583.343811,759.460144 580.942871,758.036194 575.542175,759.053284 
	C570.932617,759.921570 569.847900,762.950500 569.903748,767.388367 
	C570.117188,784.361328 569.980042,801.338623 569.995056,818.314270 
	C570.000427,824.316956 571.695251,826.006348 577.572571,825.998657 
	C583.566040,825.990723 585.737854,823.840698 585.898132,817.088440 
	C586.075867,809.603394 586.248230,802.095032 585.859070,794.626160 
	C585.483887,787.425720 588.440735,782.162354 593.182739,777.053101 
	C597.858826,772.014954 606.910034,770.301086 612.057312,772.676514 
	C618.484924,775.642944 621.171448,781.209595 621.060303,788.327148 
	C620.904358,798.310303 620.901062,808.300293 621.083496,818.282715 
	C621.192627,824.255920 623.857910,826.230835 630.586426,825.997925 
	C635.306396,825.834595 636.989319,823.795410 636.994873,818.124207 
	C637.005737,807.139954 637.423889,796.133362 636.860168,785.177795 
	C636.311279,774.510071 632.102234,765.524048 621.882568,760.420166 
	C613.123108,756.045654 604.200317,756.546692 594.550598,759.879456 
M961.814270,823.919067 
	C975.123047,830.296265 987.740784,829.332092 999.511780,820.116211 
	C1001.588074,825.593262 1004.039001,827.224121 1009.959412,825.767883 
	C1011.931213,825.282898 1014.732605,822.478333 1014.767212,820.688049 
	C1015.124207,802.213074 1015.050537,783.728394 1014.947571,765.247131 
	C1014.926025,761.376892 1012.489624,759.313843 1008.659485,759.016846 
	C1004.601807,758.702148 1000.473206,759.097900 1000.104309,764.141907 
	C999.429382,773.370911 998.948181,782.654297 999.164062,791.896790 
	C999.371094,800.762390 994.132629,808.672974 985.172485,812.410645 
	C975.582092,816.411194 964.766113,809.622681 964.962097,799.091248 
	C965.045654,794.597351 965.066650,790.097534 964.938232,785.605469 
	C964.744995,778.846252 964.881531,772.025024 963.968018,765.354736 
	C963.149475,759.378235 960.441528,757.967957 954.059509,759.074402 
	C949.445190,759.874390 948.986145,763.564636 948.992554,767.392578 
	C949.007874,776.550293 949.357544,785.725647 948.908081,794.861206 
	C948.332275,806.565613 952.039368,816.149658 961.814270,823.919067 
M671.115173,773.358398 
	C679.893555,768.953308 687.672974,771.126160 694.672546,777.200256 
	C698.747742,780.736633 702.428101,781.194458 705.409119,778.021851 
	C708.636230,774.587402 708.150208,771.067688 704.424683,766.922058 
	C694.394531,755.760986 677.148987,754.811707 664.347351,760.373535 
	C652.746521,765.413513 647.459473,774.826294 645.746704,787.223389 
	C644.046265,799.531677 646.626343,810.320374 655.501343,818.720337 
	C667.830688,830.389832 687.881592,831.030273 702.358093,821.027649 
	C703.572327,820.188660 704.523376,818.961426 705.570435,817.888916 
	C709.230530,814.139954 709.715393,809.646545 706.809753,806.545593 
	C704.557983,804.142456 699.543579,804.425049 696.040100,807.547363 
	C682.919922,819.240051 665.650940,813.145325 662.465759,799.981262 
	C661.966736,797.918945 661.687927,795.803345 661.309387,793.711914 
	C660.144775,787.277893 664.637451,777.599609 671.115173,773.358398 
M550.172791,851.494263 
	C549.234253,853.116760 548.295715,854.739319 547.635071,855.881409 
	C545.607239,853.753662 543.904602,850.403076 541.514709,849.806702 
	C537.376343,848.773987 532.809631,849.371765 528.430054,849.514709 
	C527.950684,849.530396 527.140076,851.040649 527.126526,851.868164 
	C527.006470,859.197815 526.955811,866.531433 527.108154,873.859253 
	C527.127747,874.798889 528.425842,875.711914 529.131653,876.637268 
	C529.751160,875.621460 530.698303,874.671021 530.917053,873.575256 
	C531.288635,871.713257 531.201477,869.759644 531.311096,867.771362 
	C541.216003,869.582886 542.451538,869.008240 547.613281,860.330688 
	C547.859192,861.374207 547.922913,862.162231 548.225464,862.844360 
	C550.181580,867.254395 554.753723,869.685242 559.190247,868.731323 
	C564.244080,867.644653 566.803772,864.476074 566.980896,859.215698 
	C567.104431,855.549133 566.715210,851.936096 563.028503,850.202454 
	C558.929199,848.274841 554.662659,848.219666 550.172791,851.494263 
M637.270569,850.559143 
	C631.606934,858.616699 633.709778,867.355652 641.827148,868.616577 
	C644.236084,868.990845 646.867249,867.933838 650.725342,867.321899 
	C649.088928,869.747131 648.201294,872.480469 646.457886,873.234009 
	C644.827820,873.938538 642.252869,872.665283 640.164612,872.029724 
	C638.722656,871.590881 637.401184,870.755737 635.301392,869.751221 
	C635.784485,876.721680 640.294739,877.276917 644.247681,877.798096 
	C648.697571,878.384705 653.363220,874.968628 653.692261,870.684631 
	C654.174622,864.404419 653.920837,858.062927 653.833984,851.749634 
	C653.823120,850.955505 652.912415,849.484924 652.436951,849.492493 
	C647.603943,849.568542 642.774658,849.886475 637.270569,850.559143 
M779.505920,852.040222 
	C776.304016,856.078674 776.466858,860.423035 778.925720,864.576294 
	C782.156006,870.032349 787.329224,869.172302 792.662720,867.547729 
	C792.614807,871.937805 790.636353,874.313660 786.963806,873.688904 
	C784.251709,873.227478 781.804810,871.207520 778.430664,869.463867 
	C780.018616,875.643127 783.244629,878.143860 787.915649,877.897949 
	C792.745605,877.643799 796.669128,874.265015 796.902405,869.554077 
	C797.181396,863.920288 796.998779,858.263184 796.994873,852.616150 
	C796.993286,850.282593 796.400574,848.707947 793.455566,849.412964 
	C792.293152,849.691284 790.915833,849.014587 789.724121,849.239014 
	C786.472534,849.851196 783.267761,850.711975 779.505920,852.040222 
M1037.355591,870.266479 
	C1033.937012,870.912903 1034.693359,873.575256 1036.311890,874.421631 
	C1039.295776,875.982056 1042.866577,877.350281 1046.127808,877.216492 
	C1050.257690,877.047119 1052.958130,874.094421 1053.002441,869.530151 
	C1053.037842,865.876709 1053.021240,862.222717 1053.016602,858.568970 
	C1053.005005,849.449341 1052.999756,849.503967 1043.901367,849.037170 
	C1040.180786,848.846313 1036.830078,849.288940 1035.107544,853.102417 
	C1033.321899,857.055847 1032.786133,861.188782 1035.523071,864.880615 
	C1038.088135,868.340576 1041.593506,869.955627 1046.021973,868.481079 
	C1046.754395,868.237244 1047.550049,868.183655 1048.316528,868.042114 
	C1048.653931,868.369873 1048.991333,868.697571 1049.328735,869.025330 
	C1048.170288,870.494019 1046.889893,873.271790 1045.876953,873.177490 
	C1043.208130,872.929077 1040.655396,871.432861 1037.355591,870.266479 
M506.894104,858.097229 
	C506.977600,860.588074 506.931030,863.094421 507.226105,865.559937 
	C507.311523,866.273743 508.377136,866.870239 508.993439,867.520508 
	C509.604523,866.862915 510.674103,866.250916 510.744812,865.539551 
	C511.007050,862.902039 510.436523,860.085144 511.155029,857.620239 
	C511.736328,855.625977 513.461304,852.901001 515.138306,852.519592 
	C518.283447,851.804260 519.706909,854.523743 519.899902,857.492798 
	C520.061401,859.977905 519.858521,862.493835 520.132812,864.960938 
	C520.235535,865.884827 521.230469,866.709473 521.818604,867.579407 
	C522.528687,866.661743 523.729187,865.804810 523.851990,864.814331 
	C524.156555,862.357666 524.041931,859.837585 523.965698,857.347046 
	C523.728394,849.595276 519.098145,846.749939 511.887604,849.590149 
	C510.398285,850.176697 508.450165,849.586304 506.713196,849.558838 
	C502.658356,849.494690 498.600494,849.358276 494.551971,849.493774 
	C494.046143,849.510742 493.200623,850.979919 493.174408,851.797424 
	C493.030640,856.279663 492.994965,860.772400 493.176239,865.251282 
	C493.208588,866.051025 494.433075,866.802551 495.107147,867.576294 
	C495.722748,866.739502 496.736176,865.962158 496.872131,865.053589 
	C497.164551,863.099060 496.463684,860.858521 497.159302,859.134460 
	C498.171997,856.624451 500.057098,854.466431 501.570282,852.158386 
	C503.312103,853.858398 505.053925,855.558411 506.894104,858.097229 
M840.478027,851.182007 
	C837.998230,847.794861 836.164429,848.726685 834.899963,852.119019 
	C833.856323,854.918823 833.016296,857.794495 832.085999,860.636536 
	C830.216614,857.490417 829.574585,854.417725 828.492310,851.508911 
	C828.137634,850.555725 826.639526,850.027954 825.664307,849.305664 
	C825.342224,850.388794 824.549011,851.586975 824.780457,852.534973 
	C825.721619,856.391663 826.753418,860.260986 828.223328,863.937134 
	C828.835449,865.467896 830.627869,866.526794 831.883545,867.800232 
	C832.927246,866.485962 834.226868,865.297913 834.952637,863.826782 
	C835.960938,861.783142 836.538757,859.527222 837.775696,856.012878 
	C839.188965,860.224548 839.924561,862.939941 841.043518,865.487000 
	C841.474548,866.468201 842.695007,867.513428 843.708557,867.700195 
	C844.543213,867.853943 846.200806,866.990662 846.467712,866.221924 
	C848.341064,860.826050 849.948242,855.337708 851.640564,849.878906 
	C851.042542,849.530518 850.444580,849.182129 849.846619,848.833740 
	C848.811279,850.328186 847.552673,851.718506 846.795532,853.342590 
	C845.786377,855.507629 845.167175,857.854370 843.866089,861.606201 
	C842.533630,857.387756 841.664062,854.634705 840.478027,851.182007 
M685.839417,864.158508 
	C686.408142,862.963684 687.137451,861.817688 687.518677,860.565735 
	C689.443115,854.246460 687.102173,847.850220 681.930481,845.043396 
	C677.255554,842.506165 669.377014,843.751831 666.386230,847.501099 
	C662.861633,851.919739 662.874512,860.166809 666.413208,864.684814 
	C670.702332,870.161072 678.223145,870.203735 685.839417,864.158508 
M591.024292,862.470764 
	C592.247375,858.267212 593.470520,854.063721 595.055298,848.617249 
	C588.069092,850.926453 590.065308,857.233154 586.789062,861.020691 
	C586.042542,858.479736 585.716736,856.485962 584.874817,854.741333 
	C583.940735,852.805786 582.535339,851.097717 581.335205,849.290588 
	C579.969910,851.139038 578.398926,852.874756 577.304199,854.871582 
	C576.421265,856.482056 576.113403,858.407654 575.428162,860.580994 
	C571.703979,857.200989 573.823059,850.648132 567.818481,849.782715 
	C568.670715,855.057739 570.094177,859.980713 571.910095,864.754333 
	C572.383484,865.998901 574.079529,866.778442 575.213989,867.771606 
	C576.188232,866.612244 577.417480,865.580933 578.078308,864.264282 
	C579.122375,862.183838 579.785095,859.912048 581.072510,856.489624 
	C582.224365,859.621216 582.659546,861.419128 583.521484,862.981689 
	C584.462463,864.687683 585.798523,866.175781 586.962341,867.758850 
	C588.247925,866.248291 589.533508,864.737671 591.024292,862.470764 
M899.520630,864.699829 
	C901.876831,866.084961 904.133545,868.360535 906.613525,868.637573 
	C909.968323,869.012390 913.503235,867.901855 916.934937,867.284729 
	C917.326355,867.214355 917.810181,866.222473 917.814514,865.654602 
	C917.868958,858.511597 917.891479,851.366943 917.754272,844.225891 
	C917.742004,843.588257 916.559692,842.973083 915.920715,842.347534 
	C915.324829,843.012878 914.374268,843.599182 914.205017,844.359497 
	C913.820496,846.086975 913.820190,847.899841 913.660950,849.709656 
	C911.691711,849.461853 910.072205,849.145325 908.441895,849.072510 
	C901.284790,848.752747 897.217896,853.122864 898.143921,860.154724 
	C898.315186,861.455139 898.835022,862.709717 899.520630,864.699829 
M972.989319,857.554199 
	C972.967224,855.729248 973.190308,853.854004 972.830078,852.098450 
	C972.617920,851.064880 971.570190,849.524048 970.742371,849.416931 
	C967.711609,849.024780 964.615784,849.111023 961.543762,849.068542 
	C957.878174,849.017883 954.876282,850.423279 953.717407,854.002441 
	C952.347473,858.233704 952.187561,862.546448 955.637695,866.095093 
	C958.465698,869.003845 961.786499,869.807434 965.615845,868.161133 
	C966.639404,867.721069 967.953918,866.946411 968.791077,867.255676 
	C972.849304,868.754700 972.934937,866.197021 972.983765,863.478149 
	C973.013611,861.819275 972.989197,860.159363 972.989319,857.554199 
M927.045532,868.761597 
	C930.853271,868.376709 935.944031,869.320923 938.107361,867.232666 
	C940.262634,865.152039 939.543640,860.035889 939.955688,856.236694 
	C940.115784,854.760864 940.149719,853.192017 939.808289,851.769470 
	C939.587036,850.847595 938.641296,849.472168 937.918091,849.405334 
	C934.534912,849.092834 931.108215,848.987793 927.712219,849.142090 
	C923.272583,849.343872 920.717590,851.882812 920.108276,856.272034 
	C919.262817,862.361694 920.825867,865.396912 927.045532,868.761597 
M1074.014160,860.489990 
	C1073.943604,849.577148 1071.876831,847.737732 1061.512817,849.323486 
	C1061.251709,849.363464 1060.938599,849.062561 1060.410522,848.803162 
	C1060.290405,848.157104 1060.290039,847.292725 1059.962769,846.578003 
	C1059.306641,845.145203 1058.471924,843.794189 1057.711060,842.409424 
	C1057.150757,843.821533 1056.171021,845.214722 1056.106323,846.649170 
	C1055.889648,851.459412 1055.797363,856.296021 1056.075562,861.098328 
	C1056.201782,863.277405 1057.310791,865.399597 1057.973999,867.547546 
	C1058.666504,865.411377 1059.498169,863.308533 1060.020142,861.131470 
	C1060.873901,857.571350 1060.171021,852.394531 1065.403931,852.478210 
	C1070.890503,852.565979 1069.614624,857.632507 1070.098267,861.291504 
	C1070.380737,863.427856 1071.480103,865.456238 1072.211914,867.533142 
	C1072.813110,865.490112 1073.414185,863.447144 1074.014160,860.489990 
M729.100098,860.151123 
	C729.666077,865.448669 733.084595,868.661194 737.897949,868.621582 
	C741.024536,868.595825 744.898376,866.597046 747.057068,864.225708 
	C750.031067,860.958618 749.726868,856.591614 747.029907,852.684753 
	C743.869568,848.106812 739.228210,848.411072 734.885559,849.465393 
	C730.045654,850.640442 729.153687,854.941833 729.100098,860.151123 
M874.978760,862.360474 
	C875.003418,860.697388 874.497192,858.761841 875.177917,857.435364 
	C876.182922,855.477234 877.844055,852.777954 879.563721,852.502258 
	C882.585571,852.017761 884.107422,854.501526 884.026123,857.702271 
	C883.958679,860.358765 883.985291,863.033386 884.251953,865.671509 
	C884.320679,866.350708 885.367676,867.130005 886.135803,867.438904 
	C886.432617,867.558228 887.463196,866.602478 887.719299,865.960938 
	C891.630615,856.160278 886.654541,848.766052 876.382874,849.004211 
	C876.100159,849.010681 875.810791,848.730957 875.305481,848.472717 
	C875.208252,847.802368 875.254211,846.928223 874.940247,846.211914 
	C874.362305,844.892883 873.572754,843.666565 872.871460,842.401550 
	C872.249756,843.763245 871.141846,845.107239 871.091370,846.489807 
	C870.885437,852.138550 870.884705,857.803223 871.085022,863.452209 
	C871.134033,864.833984 872.231689,866.178589 872.847290,867.540222 
	C873.556396,866.107422 874.265503,864.674622 874.978760,862.360474 
M768.774658,868.572449 
	C769.844543,868.147888 771.018005,867.883423 771.966003,867.270447 
	C775.568237,864.940857 777.173706,859.642029 775.674866,854.798584 
	C774.280823,850.293701 770.869934,848.989624 766.434814,848.991150 
	C761.956055,848.992615 758.647644,850.488464 757.247559,854.925781 
	C754.717529,862.944458 759.496887,869.045166 768.774658,868.572449 
M810.235229,866.753540 
	C812.462402,861.155701 814.689514,855.557800 817.401184,848.742065 
	C809.357849,850.430542 811.839172,858.202637 807.206726,861.084473 
	C806.122925,858.542175 805.038696,856.161316 804.085938,853.729065 
	C802.270020,849.093201 802.301147,849.080994 798.581543,850.166504 
	C800.425049,858.819580 808.445312,866.516602 802.683777,876.869324 
	C804.732666,876.275879 806.223572,875.508728 806.956116,874.286865 
	C808.225647,872.169495 809.025635,869.770569 810.235229,866.753540 
M484.614960,858.010498 
	C485.113037,857.995605 485.679810,858.129639 486.096252,857.937683 
	C487.296448,857.384399 488.436005,856.699585 489.599396,856.066406 
	C488.479126,855.391602 487.386719,854.661743 486.223297,854.072083 
	C485.821106,853.868286 485.071716,854.214905 484.773743,853.963318 
	C483.481781,852.872375 482.298035,851.653259 481.074951,850.480835 
	C482.314819,849.324036 483.377625,847.774536 484.841492,847.114685 
	C486.495087,846.369263 488.509064,846.423401 490.366333,846.129883 
	C490.305267,845.429077 490.244171,844.728333 490.183105,844.027527 
	C487.153717,844.027527 484.121307,844.112366 481.095825,844.003601 
	C478.094788,843.895752 476.916473,845.271484 476.977600,848.191467 
	C477.067963,852.508118 476.775116,856.843201 477.072815,861.140869 
	C477.227478,863.373291 477.929596,867.193359 479.024292,867.438477 
	C482.702148,868.261963 486.811859,868.838379 490.387238,866.204712 
	C488.503357,865.298157 486.561798,865.400024 484.802368,864.882629 
	C483.464386,864.489197 481.277802,863.166443 481.364624,862.506592 
	C481.569672,860.948547 482.905823,859.539368 484.614960,858.010498 
M614.024780,853.864685 
	C614.039551,857.511841 613.945007,861.165039 614.144531,864.802063 
	C614.195679,865.732910 615.176575,866.612793 615.730286,867.516052 
	C616.452576,866.613831 617.601379,865.801819 617.815002,864.791992 
	C618.392395,862.062012 618.075195,859.049377 619.079773,856.535278 
	C619.778625,854.786316 622.076294,853.676208 623.659668,852.280701 
	C625.069763,853.884216 627.157654,855.282043 627.722229,857.142151 
	C628.463867,859.586060 627.856995,862.410400 628.146545,865.036255 
	C628.245056,865.929443 629.302490,866.716797 629.921814,867.552551 
	C630.584167,866.765991 631.779419,866.004028 631.817078,865.188660 
	C631.984741,861.555176 632.173584,857.858643 631.686829,854.275635 
	C631.105042,849.993896 627.395386,847.960327 622.691162,848.722351 
	C621.081543,848.983154 619.407104,849.573120 617.861145,849.344421 
	C614.763794,848.886292 614.018738,850.413208 614.024780,853.864685 
M990.024780,863.159546 
	C990.703491,864.619629 991.382263,866.079712 992.061035,867.539795 
	C992.700989,866.034668 993.545959,864.579773 993.930054,863.011902 
	C994.438049,860.937988 994.101013,858.528198 995.024658,856.721619 
	C995.936035,854.939087 997.965942,853.728394 999.505127,852.266785 
	C1000.979126,853.988281 1003.120300,855.496338 1003.756592,857.485718 
	C1004.532898,859.913147 1003.885010,862.764038 1004.199890,865.390198 
	C1004.296143,866.192932 1005.535278,866.858643 1006.250977,867.587097 
	C1006.805664,866.866089 1007.797974,866.169434 1007.839661,865.419922 
	C1008.023743,862.108154 1008.137878,858.766296 1007.895020,855.463379 
	C1007.550110,850.773010 1004.549744,848.296082 999.882385,848.441040 
	C990.069641,848.745728 990.069519,848.745667 990.036133,858.752258 
	C990.032288,859.915405 990.028015,861.078613 990.024780,863.159546 
M1018.251709,864.842896 
	C1015.784912,863.961853 1013.318176,863.080811 1010.851379,862.199707 
	C1010.603882,862.684509 1010.356323,863.169250 1010.108826,863.653992 
	C1010.838379,864.675110 1011.393738,866.346741 1012.329712,866.597412 
	C1015.333740,867.402161 1018.581726,868.349792 1021.527222,867.894348 
	C1023.103943,867.650574 1025.732910,863.644897 1025.335449,863.054443 
	C1023.734314,860.675842 1021.147583,858.956360 1018.896667,857.026245 
	C1018.674500,856.835754 1018.126648,856.983032 1017.955811,856.781799 
	C1017.102783,855.776611 1016.325195,854.707520 1015.521057,853.660767 
	C1016.943787,853.447510 1018.414551,852.908264 1019.776428,853.108704 
	C1021.270386,853.328491 1022.664001,854.230408 1024.730225,855.099731 
	C1023.401428,849.501953 1020.570496,848.082153 1015.032471,849.123047 
	C1011.318237,849.821228 1010.256897,852.710083 1011.302551,855.437622 
	C1012.054504,857.398987 1014.600220,859.062927 1016.724060,860.020386 
	C1020.280945,861.623840 1020.694519,861.922058 1018.251709,864.842896 
M707.894836,856.118591 
	C705.943237,849.585693 696.451904,845.864258 691.188843,849.634705 
	C690.619019,850.042969 690.170837,851.016785 690.155518,851.738647 
	C690.060120,856.227966 690.005920,860.724426 690.193420,865.207764 
	C690.227112,866.012390 691.449829,866.767334 692.123535,867.545227 
	C692.726562,866.687256 693.733154,865.881897 693.853088,864.960999 
	C694.152161,862.663940 693.412231,860.037415 694.273865,858.059082 
	C695.253784,855.809021 697.519775,854.119141 699.226685,852.185730 
	C700.794983,854.230835 702.837219,856.081238 703.782532,858.382324 
	C704.547180,860.243347 703.775757,862.681519 704.113831,864.795227 
	C704.274963,865.802551 705.431763,866.650635 706.137451,867.570923 
	C706.736328,866.704956 707.769897,865.878113 707.851929,864.965637 
	C708.089539,862.324280 707.944519,859.648621 707.894836,856.118591 
M726.958557,864.759949 
	C726.191711,861.600586 725.786011,861.370361 722.785095,863.576355 
	C719.977356,865.640381 716.691589,865.621338 715.511536,862.917664 
	C714.413330,860.401672 714.723633,856.504944 715.943176,853.944336 
	C717.351746,850.986572 720.221497,851.898682 722.617004,853.977112 
	C723.757446,854.966553 725.482605,855.281860 727.478271,856.130127 
	C727.500427,850.749817 724.796265,849.401672 721.166138,849.083191 
	C714.995911,848.541870 711.860107,850.161926 710.341309,854.590393 
	C708.677551,859.441467 710.241211,864.749451 714.117188,867.407593 
	C717.919067,870.014893 721.680054,869.411743 726.958557,864.759949 
M946.796265,845.846863 
	C945.341980,843.515137 944.005371,843.623352 943.147278,846.200073 
	C940.949341,852.800049 942.790283,859.373779 944.259155,865.671448 
	C945.064148,869.122620 948.736511,868.476257 951.716431,866.767578 
	C945.136658,861.061462 945.103943,854.828430 951.345703,850.562683 
	C949.892761,849.232544 948.434082,847.897095 946.796265,845.846863 
M863.028076,867.710083 
	C864.840393,867.624878 866.652710,867.539673 867.534729,867.498169 
	C866.229553,864.075562 864.265564,861.153198 864.240356,858.214294 
	C864.216553,855.438477 866.231079,852.645203 867.442383,849.627014 
	C866.810547,849.081604 865.389526,847.908081 864.033630,846.663635 
	C863.269226,845.961975 862.612000,845.143494 861.906555,844.377686 
	C861.261719,845.205566 860.247375,845.947266 860.031067,846.875061 
	C858.459106,853.616943 859.741516,860.179077 861.600159,866.671814 
	C861.678284,866.944763 862.059631,867.130981 863.028076,867.710083 
M751.074158,845.074829 
	C751.054688,851.534607 750.955322,857.996216 751.096313,864.452454 
	C751.119202,865.497864 752.209045,866.519897 752.805664,867.552734 
	C753.499512,866.805847 754.780212,866.070923 754.795837,865.310181 
	C754.937805,858.358704 755.174622,851.381348 754.705017,844.457520 
	C754.489807,841.283813 752.579529,841.274414 751.074158,845.074829 
M596.011230,864.050537 
	C596.649597,865.218933 597.287903,866.387390 597.926208,867.555847 
	C598.606445,866.430298 599.381592,865.348206 599.924927,864.160034 
	C600.177673,863.607300 599.983765,862.848755 599.986511,862.183533 
	C600.002869,858.233704 599.207581,853.930359 604.642578,852.488525 
	C604.988525,852.396790 604.894409,850.646362 605.004944,849.667603 
	C602.562378,849.570374 600.070435,849.169922 597.706299,849.554626 
	C596.965759,849.675232 596.182861,851.883057 596.091187,853.182922 
	C595.857666,856.493286 596.003357,859.830444 596.011230,864.050537 
M1028.404419,866.555298 
	C1031.116821,868.869812 1031.866089,867.141968 1031.931519,864.702087 
	C1032.042114,860.576965 1032.075928,856.439880 1031.855225,852.323120 
	C1031.802002,851.329529 1030.626587,850.396118 1029.967041,849.435059 
	C1029.329590,850.417053 1028.180054,851.380188 1028.142944,852.384277 
	C1027.978882,856.833313 1028.134277,861.294067 1028.404419,866.555298 
M983.098389,852.110840 
	C983.094543,856.439270 982.990112,860.771912 983.173096,865.092407 
	C983.209045,865.939575 984.357239,866.739563 984.992371,867.561340 
	C985.617126,866.915771 986.765137,866.284363 986.783142,865.622314 
	C986.914001,860.803406 987.249756,855.921265 986.624207,851.177368 
	C986.271851,848.505127 984.314270,848.837341 983.098389,852.110840 
M856.944641,864.912781 
	C856.937256,860.628052 857.026917,856.339172 856.843628,852.061951 
	C856.805237,851.167603 855.759949,850.316467 855.178711,849.445435 
	C854.507751,850.022156 853.271729,850.583008 853.255066,851.178101 
	C853.116699,856.109253 852.757202,861.106140 853.404053,865.958008 
	C853.746216,868.524414 855.785095,868.153015 856.944641,864.912781 
M610.932678,853.854065 
	C610.241882,852.397461 609.551086,850.940918 608.860352,849.484314 
	C608.241760,851.009277 607.229370,852.498718 607.087769,854.066772 
	C606.805420,857.193909 606.815247,860.380249 607.084412,863.509399 
	C607.204163,864.901367 608.244873,866.214111 608.867554,867.562805 
	C609.564697,866.284546 610.727783,865.053772 610.863892,863.718323 
	C611.164978,860.762939 610.949829,857.754944 610.932678,853.854065 
z"/>
<path fill="#2354E7" opacity="1.000000" stroke="none" 
	d="
M1104.020142,657.083740 
	C1107.199585,655.469543 1110.283081,653.187744 1113.373901,653.177979 
	C1128.959717,653.128662 1144.548584,653.619263 1160.133667,654.027466 
	C1168.395630,654.243896 1176.649902,654.746033 1184.911621,654.973206 
	C1187.450439,655.043091 1189.236816,655.545349 1188.964478,658.547668 
	C1188.327148,665.575500 1187.435669,672.588379 1187.049927,679.629333 
	C1186.227417,694.648621 1185.929932,709.701294 1184.846436,724.699036 
	C1184.458130,730.073669 1184.967529,736.211731 1177.932129,739.153442 
	C1171.400269,741.884583 1165.446045,741.896240 1159.888794,737.783325 
	C1158.030762,736.408142 1156.172241,733.529297 1156.207642,731.368713 
	C1156.339111,723.319031 1157.323364,715.286621 1157.861572,707.239319 
	C1158.388306,699.362671 1158.761353,691.475708 1159.266113,682.443542 
	C1145.278076,682.284607 1131.912964,682.076172 1118.546997,681.995667 
	C1102.545166,681.899231 1096.415161,671.666992 1104.020142,657.083740 
z"/>
<path fill="#2354E7" opacity="1.000000" stroke="none" 
	d="
M1065.812256,694.127808 
	C1080.482544,694.370850 1094.737427,694.539795 1108.978882,695.072083 
	C1120.483276,695.502014 1131.971191,696.370056 1142.887451,697.009766 
	C1142.887451,706.953125 1143.122925,716.502197 1142.809448,726.033203 
	C1142.577393,733.086914 1141.489990,740.108154 1141.040039,747.160156 
	C1140.535156,755.076355 1140.272583,763.009216 1139.992310,770.937988 
	C1139.794067,776.548950 1136.298462,779.204224 1131.581177,781.162842 
	C1122.892944,784.770325 1111.579590,779.515991 1111.177246,771.200073 
	C1110.948242,766.468384 1111.706055,761.679321 1112.142944,756.927429 
	C1112.698975,750.879944 1113.437866,744.849121 1113.988647,738.801208 
	C1114.418701,734.077820 1114.682373,729.339294 1115.101807,723.458557 
	C1099.826660,723.293457 1084.962524,723.113037 1070.098145,722.985229 
	C1065.994751,722.949951 1062.475708,721.815979 1059.823364,718.469543 
	C1053.237915,710.160950 1055.686401,699.401794 1065.812256,694.127808 
z"/>
<path fill="#2354E7" opacity="1.000000" stroke="none" 
	d="
M474.058350,772.371094 
	C476.528961,764.780334 479.440430,758.006836 484.971283,752.425110 
	C491.140350,746.199524 498.611267,742.515381 506.894989,741.321228 
	C519.507385,739.503296 531.861267,740.479004 542.876587,748.306885 
	C551.533325,754.458557 556.334351,762.806335 558.454346,772.950562 
	C561.246643,786.311035 559.939819,798.968140 552.072449,810.552490 
	C546.028625,819.451721 537.510742,824.584045 527.210144,826.787842 
	C515.787842,829.231567 504.681091,827.929504 494.235565,822.597900 
	C482.860535,816.791809 476.047241,807.228760 474.206665,794.812744 
	C473.140839,787.623047 474.021790,780.144775 474.058350,772.371094 
M518.357422,813.032288 
	C525.860901,813.444336 531.347046,809.731628 536.231750,804.530945 
	C542.805420,797.532104 543.660217,788.963257 542.968201,780.091614 
	C541.395447,759.928833 521.854614,749.589294 505.186951,757.337769 
	C494.495209,762.308044 488.385071,773.285095 489.817047,788.446350 
	C491.224396,803.347107 503.741150,814.857239 518.357422,813.032288 
z"/>
<path fill="#2354E7" opacity="1.000000" stroke="none" 
	d="
M1076.894775,813.945068 
	C1079.822876,813.277100 1082.427979,811.938721 1084.839966,812.225525 
	C1086.953125,812.476929 1089.942139,814.171387 1090.554443,815.923584 
	C1091.262207,817.949158 1090.595703,821.480530 1089.128784,823.062622 
	C1082.878906,829.802795 1074.899414,828.647156 1067.124878,826.506958 
	C1059.861816,824.507507 1055.898315,818.991760 1055.165771,811.915710 
	C1054.230225,802.881287 1054.308350,793.738708 1054.037231,784.640137 
	C1053.918701,780.664246 1054.017212,776.681885 1054.017212,772.844910 
	C1049.945312,771.878601 1046.148682,770.977661 1042.003906,769.994080 
	C1042.003906,775.094910 1042.003540,781.137390 1042.004028,787.179932 
	C1042.004761,797.509644 1042.016968,807.839355 1042.002930,818.169067 
	C1041.995361,823.772705 1040.128906,825.807556 1034.901733,825.999695 
	C1029.627197,826.193481 1026.380371,823.392761 1026.053833,818.356934 
	C1026.021606,817.859070 1026.044067,817.357544 1026.044067,816.857727 
	C1026.044800,794.532227 1026.018921,772.206665 1026.062866,749.881287 
	C1026.076782,742.799500 1030.480957,739.336670 1037.032959,741.008179 
	C1040.356812,741.856201 1042.074951,743.816101 1042.021362,747.339417 
	C1041.951172,751.974060 1042.004150,756.610474 1042.004150,760.664612 
	C1045.894531,759.860657 1049.611816,759.092407 1054.019897,758.181458 
	C1054.019897,755.084473 1053.931519,751.471130 1054.042847,747.864014 
	C1054.175781,743.551758 1057.812134,740.127869 1062.030640,740.158630 
	C1065.818726,740.186218 1069.803589,744.073425 1069.963623,747.967651 
	C1070.038696,749.797363 1069.981323,751.632507 1069.982422,753.465210 
	C1069.983398,755.104553 1069.982544,756.743835 1069.982544,758.999634 
	C1073.775879,758.999634 1077.217163,759.019653 1080.658203,758.994446 
	C1084.691772,758.964844 1086.834351,760.978088 1086.957520,764.967163 
	C1087.084106,769.067871 1085.018921,771.598633 1080.923706,771.921082 
	C1077.481567,772.192017 1074.001221,771.976807 1070.990723,771.976807 
	C1070.990723,784.777710 1070.870605,797.135803 1071.077515,809.488403 
	C1071.127319,812.460510 1073.393799,814.028198 1076.894775,813.945068 
z"/>
<path fill="#2354E7" opacity="1.000000" stroke="none" 
	d="
M935.988647,768.267395 
	C935.991150,784.900391 935.950867,801.066711 936.027527,817.232544 
	C936.045044,820.926208 935.751709,824.616638 931.615845,825.599548 
	C927.451782,826.589111 922.959534,826.967712 920.631714,822.676025 
	C915.345886,824.167664 910.262695,825.813538 905.078186,827.026550 
	C887.757690,831.078796 873.160278,818.873413 870.041199,802.305481 
	C868.038391,791.666931 868.692505,781.389771 874.560608,771.947693 
	C883.963318,756.818176 903.100708,753.074829 918.068909,762.018005 
	C918.627197,762.351562 919.231018,762.609131 920.110596,763.051392 
	C922.727112,758.231384 927.253967,758.303345 931.623840,759.403076 
	C935.743774,760.439941 936.230530,764.104736 935.988647,768.267395 
M901.716064,771.963806 
	C894.315063,772.284607 889.872253,776.400208 886.950073,782.931458 
	C879.864380,798.768127 889.696289,814.140015 906.332092,813.019775 
	C914.033691,812.501038 920.005859,806.239075 920.008911,798.680115 
	C920.010742,794.195068 919.777588,789.694031 920.079895,785.229309 
	C920.408020,780.382568 917.876282,777.071960 914.171204,775.196716 
	C910.666565,773.422791 906.484924,772.986511 901.716064,771.963806 
z"/>
<path fill="#2354E7" opacity="1.000000" stroke="none" 
	d="
M773.760498,816.683350 
	C760.983704,830.508240 736.768677,832.063171 722.160767,819.300598 
	C712.829712,811.148193 709.754028,799.714966 711.436951,787.551086 
	C712.128418,782.553284 714.312134,777.600708 716.604614,773.021851 
	C720.478760,765.283936 727.315369,761.101624 735.541382,758.807678 
	C747.063049,755.594727 757.781677,757.145630 767.926697,763.421631 
	C779.390015,770.513000 784.022888,786.720764 781.449402,798.595459 
	C780.108337,804.783875 776.560425,810.494141 773.760498,816.683350 
M745.823242,771.631042 
	C741.964722,773.158081 737.490845,773.905029 734.369934,776.367126 
	C726.797668,782.341064 726.813782,791.250244 728.422791,799.539429 
	C730.069824,808.024597 740.003113,814.857605 747.235596,813.896484 
	C764.659058,811.580994 768.592285,795.611816 763.637268,783.162842 
	C760.582581,775.488342 754.509155,771.957336 745.823242,771.631042 
z"/>
<path fill="#2354E7" opacity="1.000000" stroke="none" 
	d="
M817.330627,822.658203 
	C805.393066,799.466003 793.662720,776.594788 781.969849,753.704407 
	C779.304504,748.486694 779.969421,744.895630 784.286804,743.008484 
	C789.272949,740.829041 793.678833,741.447266 796.328735,746.649170 
	C803.685120,761.090576 811.357971,775.370972 818.924072,789.705322 
	C820.675598,793.023682 822.500122,796.303467 824.521790,800.025879 
	C825.428040,798.634644 826.281677,797.552246 826.895386,796.347656 
	C835.000732,780.437866 843.014771,764.481262 851.198975,748.612305 
	C852.906555,745.301331 854.754456,741.933594 859.491516,741.954346 
	C866.723328,741.986023 870.040161,746.999634 866.736572,753.529541 
	C857.715759,771.360168 848.588257,789.136841 839.526672,806.946777 
	C837.223022,811.474304 835.045776,816.066101 832.741516,820.593201 
	C829.320007,827.315186 822.952942,828.292419 817.330627,822.658203 
z"/>
<path fill="#2354E7" opacity="1.000000" stroke="none" 
	d="
M594.862183,759.630066 
	C604.200317,756.546692 613.123108,756.045654 621.882568,760.420166 
	C632.102234,765.524048 636.311279,774.510071 636.860168,785.177795 
	C637.423889,796.133362 637.005737,807.139954 636.994873,818.124207 
	C636.989319,823.795410 635.306396,825.834595 630.586426,825.997925 
	C623.857910,826.230835 621.192627,824.255920 621.083496,818.282715 
	C620.901062,808.300293 620.904358,798.310303 621.060303,788.327148 
	C621.171448,781.209595 618.484924,775.642944 612.057312,772.676514 
	C606.910034,770.301086 597.858826,772.014954 593.182739,777.053101 
	C588.440735,782.162354 585.483887,787.425720 585.859070,794.626160 
	C586.248230,802.095032 586.075867,809.603394 585.898132,817.088440 
	C585.737854,823.840698 583.566040,825.990723 577.572571,825.998657 
	C571.695251,826.006348 570.000427,824.316956 569.995056,818.314270 
	C569.980042,801.338623 570.117188,784.361328 569.903748,767.388367 
	C569.847900,762.950500 570.932617,759.921570 575.542175,759.053284 
	C580.942871,758.036194 583.343811,759.460144 585.441956,764.655945 
	C588.476990,763.064392 591.513794,761.471924 594.862183,759.630066 
z"/>
<path fill="#2354E7" opacity="1.000000" stroke="none" 
	d="
M961.482178,823.749268 
	C952.039368,816.149658 948.332275,806.565613 948.908081,794.861206 
	C949.357544,785.725647 949.007874,776.550293 948.992554,767.392578 
	C948.986145,763.564636 949.445190,759.874390 954.059509,759.074402 
	C960.441528,757.967957 963.149475,759.378235 963.968018,765.354736 
	C964.881531,772.025024 964.744995,778.846252 964.938232,785.605469 
	C965.066650,790.097534 965.045654,794.597351 964.962097,799.091248 
	C964.766113,809.622681 975.582092,816.411194 985.172485,812.410645 
	C994.132629,808.672974 999.371094,800.762390 999.164062,791.896790 
	C998.948181,782.654297 999.429382,773.370911 1000.104309,764.141907 
	C1000.473206,759.097900 1004.601807,758.702148 1008.659485,759.016846 
	C1012.489624,759.313843 1014.926025,761.376892 1014.947571,765.247131 
	C1015.050537,783.728394 1015.124207,802.213074 1014.767212,820.688049 
	C1014.732605,822.478333 1011.931213,825.282898 1009.959412,825.767883 
	C1004.039001,827.224121 1001.588074,825.593262 999.511780,820.116211 
	C987.740784,829.332092 975.123047,830.296265 961.482178,823.749268 
z"/>
<path fill="#2354E7" opacity="1.000000" stroke="none" 
	d="
M670.820435,773.607239 
	C664.637451,777.599609 660.144775,787.277893 661.309387,793.711914 
	C661.687927,795.803345 661.966736,797.918945 662.465759,799.981262 
	C665.650940,813.145325 682.919922,819.240051 696.040100,807.547363 
	C699.543579,804.425049 704.557983,804.142456 706.809753,806.545593 
	C709.715393,809.646545 709.230530,814.139954 705.570435,817.888916 
	C704.523376,818.961426 703.572327,820.188660 702.358093,821.027649 
	C687.881592,831.030273 667.830688,830.389832 655.501343,818.720337 
	C646.626343,810.320374 644.046265,799.531677 645.746704,787.223389 
	C647.459473,774.826294 652.746521,765.413513 664.347351,760.373535 
	C677.148987,754.811707 694.394531,755.760986 704.424683,766.922058 
	C708.150208,771.067688 708.636230,774.587402 705.409119,778.021851 
	C702.428101,781.194458 698.747742,780.736633 694.672546,777.200256 
	C687.672974,771.126160 679.893555,768.953308 670.820435,773.607239 
z"/>
<path fill="#2C2B39" opacity="1.000000" stroke="none" 
	d="
M550.445618,851.237000 
	C554.662659,848.219666 558.929199,848.274841 563.028503,850.202454 
	C566.715210,851.936096 567.104431,855.549133 566.980896,859.215698 
	C566.803772,864.476074 564.244080,867.644653 559.190247,868.731323 
	C554.753723,869.685242 550.181580,867.254395 548.225464,862.844360 
	C547.922913,862.162231 547.859192,861.374207 547.613281,860.330688 
	C542.451538,869.008240 541.216003,869.582886 531.311096,867.771362 
	C531.201477,869.759644 531.288635,871.713257 530.917053,873.575256 
	C530.698303,874.671021 529.751160,875.621460 529.131653,876.637268 
	C528.425842,875.711914 527.127747,874.798889 527.108154,873.859253 
	C526.955811,866.531433 527.006470,859.197815 527.126526,851.868164 
	C527.140076,851.040649 527.950684,849.530396 528.430054,849.514709 
	C532.809631,849.371765 537.376343,848.773987 541.514709,849.806702 
	C543.904602,850.403076 545.607239,853.753662 547.635071,855.881409 
	C548.295715,854.739319 549.234253,853.116760 550.445618,851.237000 
M531.118774,859.285400 
	C532.787720,861.113953 534.200867,863.381653 536.242310,864.570801 
	C537.152100,865.100891 540.142212,863.879456 540.742981,862.710327 
	C541.742432,860.765381 542.496948,857.765747 541.648865,856.056519 
	C540.766479,854.278198 537.274048,852.078186 535.976868,852.614014 
	C533.890869,853.475708 532.671082,856.434387 531.118774,859.285400 
M560.296509,853.230286 
	C557.068359,851.237732 553.919861,852.333923 552.881592,855.270874 
	C552.070374,857.565613 552.911133,860.983643 554.187439,863.241455 
	C554.792358,864.311646 558.542969,864.675537 560.143494,863.887329 
	C563.443359,862.262146 563.585876,858.983154 562.228149,855.747375 
	C561.917480,855.007080 561.351868,854.373718 560.296509,853.230286 
z"/>
<path fill="#2C2B39" opacity="1.000000" stroke="none" 
	d="
M637.607422,850.347900 
	C642.774658,849.886475 647.603943,849.568542 652.436951,849.492493 
	C652.912415,849.484924 653.823120,850.955505 653.833984,851.749634 
	C653.920837,858.062927 654.174622,864.404419 653.692261,870.684631 
	C653.363220,874.968628 648.697571,878.384705 644.247681,877.798096 
	C640.294739,877.276917 635.784485,876.721680 635.301392,869.751221 
	C637.401184,870.755737 638.722656,871.590881 640.164612,872.029724 
	C642.252869,872.665283 644.827820,873.938538 646.457886,873.234009 
	C648.201294,872.480469 649.088928,869.747131 650.725342,867.321899 
	C646.867249,867.933838 644.236084,868.990845 641.827148,868.616577 
	C633.709778,867.355652 631.606934,858.616699 637.607422,850.347900 
M644.394043,864.850952 
	C648.438110,864.168274 650.379822,861.233154 649.413269,857.796631 
	C648.796570,855.603821 645.973389,853.013062 643.788208,852.635803 
	C642.315613,852.381592 639.353577,855.364868 638.605774,857.454041 
	C637.163879,861.482056 639.629272,863.941223 644.394043,864.850952 
z"/>
<path fill="#2C2B39" opacity="1.000000" stroke="none" 
	d="
M779.775146,851.757202 
	C783.267761,850.711975 786.472534,849.851196 789.724121,849.239014 
	C790.915833,849.014587 792.293152,849.691284 793.455566,849.412964 
	C796.400574,848.707947 796.993286,850.282593 796.994873,852.616150 
	C796.998779,858.263184 797.181396,863.920288 796.902405,869.554077 
	C796.669128,874.265015 792.745605,877.643799 787.915649,877.897949 
	C783.244629,878.143860 780.018616,875.643127 778.430664,869.463867 
	C781.804810,871.207520 784.251709,873.227478 786.963806,873.688904 
	C790.636353,874.313660 792.614807,871.937805 792.662720,867.547729 
	C787.329224,869.172302 782.156006,870.032349 778.925720,864.576294 
	C776.466858,860.423035 776.304016,856.078674 779.775146,851.757202 
M785.438110,852.867554 
	C784.456360,853.709473 782.641052,854.556213 782.645874,855.392395 
	C782.661621,858.131897 782.778198,861.175354 784.030151,863.457886 
	C784.553101,864.411255 789.177917,864.615112 789.924561,863.631592 
	C791.454163,861.616516 792.543762,858.365112 792.024109,856.019409 
	C791.687195,854.498840 788.182312,853.680237 785.438110,852.867554 
z"/>
<path fill="#2C2B39" opacity="1.000000" stroke="none" 
	d="
M1037.706055,870.350037 
	C1040.655396,871.432861 1043.208130,872.929077 1045.876953,873.177490 
	C1046.889893,873.271790 1048.170288,870.494019 1049.328735,869.025330 
	C1048.991333,868.697571 1048.653931,868.369873 1048.316528,868.042114 
	C1047.550049,868.183655 1046.754395,868.237244 1046.021973,868.481079 
	C1041.593506,869.955627 1038.088135,868.340576 1035.523071,864.880615 
	C1032.786133,861.188782 1033.321899,857.055847 1035.107544,853.102417 
	C1036.830078,849.288940 1040.180786,848.846313 1043.901367,849.037170 
	C1052.999756,849.503967 1053.005005,849.449341 1053.016602,858.568970 
	C1053.021240,862.222717 1053.037842,865.876709 1053.002441,869.530151 
	C1052.958130,874.094421 1050.257690,877.047119 1046.127808,877.216492 
	C1042.866577,877.350281 1039.295776,875.982056 1036.311890,874.421631 
	C1034.693359,873.575256 1033.937012,870.912903 1037.706055,870.350037 
M1041.969727,864.714050 
	C1047.144165,864.604309 1049.426270,862.274719 1048.950073,857.588440 
	C1048.603638,854.180176 1045.515625,851.704346 1042.481445,852.402405 
	C1039.076416,853.185852 1036.988770,856.955444 1038.291992,860.620605 
	C1038.801392,862.053284 1040.239746,863.155518 1041.969727,864.714050 
z"/>
<path fill="#2C2B39" opacity="1.000000" stroke="none" 
	d="
M506.844940,857.677856 
	C505.053925,855.558411 503.312103,853.858398 501.570282,852.158386 
	C500.057098,854.466431 498.171997,856.624451 497.159302,859.134460 
	C496.463684,860.858521 497.164551,863.099060 496.872131,865.053589 
	C496.736176,865.962158 495.722748,866.739502 495.107147,867.576294 
	C494.433075,866.802551 493.208588,866.051025 493.176239,865.251282 
	C492.994965,860.772400 493.030640,856.279663 493.174408,851.797424 
	C493.200623,850.979919 494.046143,849.510742 494.551971,849.493774 
	C498.600494,849.358276 502.658356,849.494690 506.713196,849.558838 
	C508.450165,849.586304 510.398285,850.176697 511.887604,849.590149 
	C519.098145,846.749939 523.728394,849.595276 523.965698,857.347046 
	C524.041931,859.837585 524.156555,862.357666 523.851990,864.814331 
	C523.729187,865.804810 522.528687,866.661743 521.818604,867.579407 
	C521.230469,866.709473 520.235535,865.884827 520.132812,864.960938 
	C519.858521,862.493835 520.061401,859.977905 519.899902,857.492798 
	C519.706909,854.523743 518.283447,851.804260 515.138306,852.519592 
	C513.461304,852.901001 511.736328,855.625977 511.155029,857.620239 
	C510.436523,860.085144 511.007050,862.902039 510.744812,865.539551 
	C510.674103,866.250916 509.604523,866.862915 508.993408,867.520508 
	C508.377136,866.870239 507.311523,866.273743 507.226105,865.559937 
	C506.931030,863.094421 506.977600,860.588074 506.844940,857.677856 
z"/>
<path fill="#2C2B39" opacity="1.000000" stroke="none" 
	d="
M840.636230,851.531860 
	C841.664062,854.634705 842.533630,857.387756 843.866089,861.606201 
	C845.167175,857.854370 845.786377,855.507629 846.795532,853.342590 
	C847.552673,851.718506 848.811279,850.328186 849.846619,848.833740 
	C850.444580,849.182129 851.042542,849.530518 851.640564,849.878906 
	C849.948242,855.337708 848.341064,860.826050 846.467712,866.221924 
	C846.200806,866.990662 844.543213,867.853943 843.708557,867.700195 
	C842.695007,867.513428 841.474548,866.468201 841.043518,865.487000 
	C839.924561,862.939941 839.188965,860.224548 837.775696,856.012878 
	C836.538757,859.527222 835.960938,861.783142 834.952637,863.826782 
	C834.226868,865.297913 832.927246,866.485962 831.883545,867.800232 
	C830.627869,866.526794 828.835449,865.467896 828.223328,863.937134 
	C826.753418,860.260986 825.721619,856.391663 824.780457,852.534973 
	C824.549011,851.586975 825.342224,850.388794 825.664307,849.305664 
	C826.639526,850.027954 828.137634,850.555725 828.492310,851.508911 
	C829.574585,854.417725 830.216614,857.490417 832.085999,860.636536 
	C833.016296,857.794495 833.856323,854.918823 834.899963,852.119019 
	C836.164429,848.726685 837.998230,847.794861 840.636230,851.531860 
z"/>
<path fill="#2C2B39" opacity="1.000000" stroke="none" 
	d="
M685.624939,864.475464 
	C678.223145,870.203735 670.702332,870.161072 666.413208,864.684814 
	C662.874512,860.166809 662.861633,851.919739 666.386230,847.501099 
	C669.377014,843.751831 677.255554,842.506165 681.930481,845.043396 
	C687.102173,847.850220 689.443115,854.246460 687.518677,860.565735 
	C687.137451,861.817688 686.408142,862.963684 685.624939,864.475464 
M672.734192,848.116272 
	C667.977356,851.044250 666.415588,856.166504 668.992432,860.815674 
	C671.051880,864.531372 674.389282,865.742920 678.312012,864.538696 
	C682.608154,863.219849 685.141724,857.505615 683.742004,853.055115 
	C682.438477,848.910400 678.265808,846.794800 672.734192,848.116272 
z"/>
<path fill="#282736" opacity="1.000000" stroke="none" 
	d="
M590.921692,862.848938 
	C589.533508,864.737671 588.247925,866.248291 586.962402,867.758850 
	C585.798523,866.175781 584.462463,864.687683 583.521484,862.981689 
	C582.659546,861.419128 582.224365,859.621216 581.072510,856.489624 
	C579.785095,859.912048 579.122375,862.183838 578.078308,864.264282 
	C577.417480,865.580933 576.188232,866.612244 575.213989,867.771606 
	C574.079529,866.778442 572.383484,865.998901 571.910095,864.754333 
	C570.094177,859.980713 568.670715,855.057739 567.818481,849.782715 
	C573.823059,850.648132 571.703979,857.200989 575.428162,860.580994 
	C576.113403,858.407654 576.421265,856.482056 577.304199,854.871582 
	C578.398926,852.874756 579.969910,851.139038 581.335205,849.290588 
	C582.535339,851.097717 583.940735,852.805786 584.874817,854.741333 
	C585.716736,856.485962 586.042542,858.479736 586.789062,861.020691 
	C590.065308,857.233154 588.069092,850.926453 595.055298,848.617249 
	C593.470520,854.063721 592.247375,858.267212 590.921692,862.848938 
z"/>
<path fill="#2C2B39" opacity="1.000000" stroke="none" 
	d="
M899.357300,864.342651 
	C898.835022,862.709717 898.315186,861.455139 898.143921,860.154724 
	C897.217896,853.122864 901.284790,848.752747 908.441895,849.072510 
	C910.072205,849.145325 911.691711,849.461853 913.660950,849.709656 
	C913.820190,847.899841 913.820496,846.086975 914.205017,844.359497 
	C914.374268,843.599182 915.324829,843.012878 915.920715,842.347534 
	C916.559692,842.973083 917.742004,843.588257 917.754272,844.225891 
	C917.891479,851.366943 917.868958,858.511597 917.814514,865.654602 
	C917.810181,866.222473 917.326355,867.214355 916.934937,867.284729 
	C913.503235,867.901855 909.968323,869.012390 906.613525,868.637573 
	C904.133545,868.360535 901.876831,866.084961 899.357300,864.342651 
M911.214233,863.814453 
	C914.569214,861.070679 914.872314,857.693787 911.947998,854.844238 
	C910.558350,853.490234 907.201233,852.509460 905.702209,853.268555 
	C902.895813,854.689758 901.051147,857.688660 902.749756,861.227051 
	C904.346313,864.552856 906.976562,865.724670 911.214233,863.814453 
z"/>
<path fill="#282736" opacity="1.000000" stroke="none" 
	d="
M972.989258,858.027100 
	C972.989197,860.159363 973.013611,861.819275 972.983765,863.478149 
	C972.934937,866.197021 972.849304,868.754700 968.791077,867.255676 
	C967.953918,866.946411 966.639404,867.721069 965.615845,868.161133 
	C961.786499,869.807434 958.465698,869.003845 955.637695,866.095093 
	C952.187561,862.546448 952.347473,858.233704 953.717407,854.002441 
	C954.876282,850.423279 957.878174,849.017883 961.543762,849.068542 
	C964.615784,849.111023 967.711609,849.024780 970.742371,849.416931 
	C971.570190,849.524048 972.617920,851.064880 972.830078,852.098450 
	C973.190308,853.854004 972.967224,855.729248 972.989258,858.027100 
M963.213989,852.310791 
	C959.087646,852.352905 956.823059,854.902466 957.331055,858.531738 
	C957.647278,860.790955 959.805847,863.758606 961.826294,864.480652 
	C963.223816,864.980103 966.640564,862.646118 967.660217,860.767151 
	C969.476746,857.419617 967.893250,854.433899 964.352966,852.750610 
	C964.204346,852.679993 964.055664,852.609497 963.213989,852.310791 
z"/>
<path fill="#2C2B39" opacity="1.000000" stroke="none" 
	d="
M926.672607,868.647339 
	C920.825867,865.396912 919.262817,862.361694 920.108276,856.272034 
	C920.717590,851.882812 923.272583,849.343872 927.712219,849.142090 
	C931.108215,848.987793 934.534912,849.092834 937.918091,849.405334 
	C938.641296,849.472168 939.587036,850.847595 939.808289,851.769470 
	C940.149719,853.192017 940.115784,854.760864 939.955688,856.236694 
	C939.543640,860.035889 940.262634,865.152039 938.107361,867.232666 
	C935.944031,869.320923 930.853271,868.376709 926.672607,868.647339 
M928.744446,852.295898 
	C927.999695,852.648376 926.747375,852.854004 926.595825,853.377991 
	C925.834839,856.008484 924.644287,858.842773 925.067200,861.359741 
	C925.305786,862.778992 928.652466,864.926331 930.089417,864.587036 
	C932.021118,864.130981 934.678040,861.679504 934.806152,859.922852 
	C934.969482,857.684387 933.013245,855.229675 931.747681,852.994446 
	C931.453003,852.474060 930.258423,852.463257 928.744446,852.295898 
z"/>
<path fill="#282736" opacity="1.000000" stroke="none" 
	d="
M1074.014648,860.947083 
	C1073.414185,863.447144 1072.813110,865.490112 1072.211914,867.533142 
	C1071.480103,865.456238 1070.380737,863.427856 1070.098267,861.291504 
	C1069.614624,857.632507 1070.890503,852.565979 1065.403931,852.478210 
	C1060.171021,852.394531 1060.873901,857.571350 1060.020142,861.131470 
	C1059.498169,863.308533 1058.666504,865.411377 1057.973999,867.547546 
	C1057.310791,865.399597 1056.201782,863.277405 1056.075562,861.098328 
	C1055.797363,856.296021 1055.889648,851.459412 1056.106323,846.649170 
	C1056.171021,845.214722 1057.150757,843.821533 1057.711060,842.409424 
	C1058.471924,843.794189 1059.306641,845.145203 1059.962769,846.578003 
	C1060.290039,847.292725 1060.290405,848.157104 1060.410522,848.803162 
	C1060.938599,849.062561 1061.251709,849.363464 1061.512817,849.323486 
	C1071.876831,847.737732 1073.943604,849.577148 1074.014648,860.947083 
z"/>
<path fill="#2C2B39" opacity="1.000000" stroke="none" 
	d="
M729.075684,859.744629 
	C729.153687,854.941833 730.045654,850.640442 734.885559,849.465393 
	C739.228210,848.411072 743.869568,848.106812 747.029907,852.684753 
	C749.726868,856.591614 750.031067,860.958618 747.057068,864.225708 
	C744.898376,866.597046 741.024536,868.595825 737.897949,868.621582 
	C733.084595,868.661194 729.666077,865.448669 729.075684,859.744629 
M741.452759,864.098938 
	C742.281555,863.096069 743.786804,862.102783 743.801025,861.088501 
	C743.832642,858.840942 743.784851,856.016663 742.501770,854.500427 
	C741.386597,853.182678 737.929688,852.316040 736.591370,853.099915 
	C734.864929,854.111267 733.427185,856.908325 733.275879,859.036682 
	C732.992981,863.013733 735.882019,864.787964 741.452759,864.098938 
z"/>
<path fill="#2C2B39" opacity="1.000000" stroke="none" 
	d="
M874.976685,862.801147 
	C874.265503,864.674622 873.556396,866.107422 872.847290,867.540222 
	C872.231689,866.178589 871.134033,864.833984 871.085022,863.452209 
	C870.884705,857.803223 870.885437,852.138550 871.091370,846.489807 
	C871.141846,845.107239 872.249756,843.763245 872.871460,842.401550 
	C873.572754,843.666565 874.362305,844.892883 874.940247,846.211914 
	C875.254211,846.928223 875.208252,847.802368 875.305481,848.472717 
	C875.810791,848.730957 876.100159,849.010681 876.382874,849.004211 
	C886.654541,848.766052 891.630615,856.160278 887.719299,865.960938 
	C887.463196,866.602478 886.432617,867.558228 886.135803,867.438904 
	C885.367676,867.130005 884.320679,866.350708 884.251953,865.671509 
	C883.985291,863.033386 883.958679,860.358765 884.026123,857.702271 
	C884.107422,854.501526 882.585571,852.017761 879.563721,852.502258 
	C877.844055,852.777954 876.182922,855.477234 875.177917,857.435364 
	C874.497192,858.761841 875.003418,860.697388 874.976685,862.801147 
z"/>
<path fill="#2C2B39" opacity="1.000000" stroke="none" 
	d="
M768.392883,868.682495 
	C759.496887,869.045166 754.717529,862.944458 757.247559,854.925781 
	C758.647644,850.488464 761.956055,848.992615 766.434814,848.991150 
	C770.869934,848.989624 774.280823,850.293701 775.674866,854.798584 
	C777.173706,859.642029 775.568237,864.940857 771.966003,867.270447 
	C771.018005,867.883423 769.844543,868.147888 768.392883,868.682495 
M765.730103,864.847473 
	C770.715393,864.020447 772.838989,861.452332 771.761475,857.217651 
	C770.946228,854.013184 769.077637,851.725708 765.352966,852.497009 
	C761.901978,853.211548 759.840454,857.304626 761.345764,860.843506 
	C761.994873,862.369446 763.729980,863.433533 765.730103,864.847473 
z"/>
<path fill="#2C2B39" opacity="1.000000" stroke="none" 
	d="
M810.128906,867.121582 
	C809.025635,869.770569 808.225647,872.169495 806.956116,874.286865 
	C806.223572,875.508728 804.732666,876.275879 802.683777,876.869324 
	C808.445312,866.516602 800.425049,858.819580 798.581543,850.166504 
	C802.301147,849.080994 802.270020,849.093201 804.085938,853.729065 
	C805.038696,856.161316 806.122925,858.542175 807.206726,861.084473 
	C811.839172,858.202637 809.357849,850.430542 817.401184,848.742065 
	C814.689514,855.557800 812.462402,861.155701 810.128906,867.121582 
z"/>
<path fill="#2C2B39" opacity="1.000000" stroke="none" 
	d="
M484.199738,858.040283 
	C482.905823,859.539368 481.569672,860.948547 481.364624,862.506592 
	C481.277802,863.166443 483.464386,864.489197 484.802368,864.882629 
	C486.561798,865.400024 488.503357,865.298157 490.387238,866.204712 
	C486.811859,868.838379 482.702148,868.261963 479.024292,867.438477 
	C477.929596,867.193359 477.227478,863.373291 477.072815,861.140869 
	C476.775116,856.843201 477.067963,852.508118 476.977600,848.191467 
	C476.916473,845.271484 478.094788,843.895752 481.095825,844.003601 
	C484.121307,844.112366 487.153717,844.027527 490.183105,844.027527 
	C490.244171,844.728333 490.305267,845.429077 490.366333,846.129883 
	C488.509064,846.423401 486.495087,846.369263 484.841492,847.114685 
	C483.377625,847.774536 482.314819,849.324036 481.074951,850.480835 
	C482.298035,851.653259 483.481781,852.872375 484.773743,853.963318 
	C485.071716,854.214905 485.821106,853.868286 486.223297,854.072083 
	C487.386719,854.661743 488.479126,855.391602 489.599365,856.066406 
	C488.436005,856.699585 487.296448,857.384399 486.096252,857.937683 
	C485.679810,858.129639 485.113037,857.995605 484.199738,858.040283 
z"/>
<path fill="#282736" opacity="1.000000" stroke="none" 
	d="
M614.032715,853.423218 
	C614.018738,850.413208 614.763794,848.886292 617.861145,849.344421 
	C619.407104,849.573120 621.081543,848.983154 622.691162,848.722351 
	C627.395386,847.960327 631.105042,849.993896 631.686829,854.275635 
	C632.173584,857.858643 631.984741,861.555176 631.817078,865.188660 
	C631.779419,866.004028 630.584167,866.765991 629.921814,867.552551 
	C629.302490,866.716797 628.245056,865.929443 628.146545,865.036255 
	C627.856995,862.410400 628.463867,859.586060 627.722229,857.142151 
	C627.157654,855.282043 625.069763,853.884216 623.659668,852.280762 
	C622.076294,853.676208 619.778625,854.786316 619.079773,856.535278 
	C618.075195,859.049377 618.392395,862.062012 617.815002,864.791992 
	C617.601379,865.801819 616.452576,866.613831 615.730286,867.516052 
	C615.176575,866.612793 614.195679,865.732910 614.144531,864.802063 
	C613.945007,861.165039 614.039551,857.511841 614.032715,853.423218 
z"/>
<path fill="#282736" opacity="1.000000" stroke="none" 
	d="
M990.024292,862.700684 
	C990.028015,861.078613 990.032288,859.915405 990.036133,858.752258 
	C990.069519,848.745667 990.069641,848.745728 999.882385,848.441040 
	C1004.549744,848.296082 1007.550110,850.773010 1007.895020,855.463379 
	C1008.137878,858.766296 1008.023743,862.108154 1007.839661,865.419922 
	C1007.797974,866.169434 1006.805664,866.866089 1006.250977,867.587158 
	C1005.535278,866.858643 1004.296143,866.192932 1004.199890,865.390198 
	C1003.885010,862.764038 1004.532898,859.913147 1003.756592,857.485718 
	C1003.120300,855.496338 1000.979126,853.988281 999.505127,852.266846 
	C997.965942,853.728394 995.936035,854.939087 995.024658,856.721619 
	C994.101013,858.528198 994.438049,860.937988 993.930054,863.011902 
	C993.545959,864.579773 992.700989,866.034668 992.061035,867.539795 
	C991.382263,866.079712 990.703491,864.619629 990.024292,862.700684 
z"/>
<path fill="#2C2B39" opacity="1.000000" stroke="none" 
	d="
M1018.601196,864.786255 
	C1020.694519,861.922058 1020.280945,861.623840 1016.724060,860.020386 
	C1014.600220,859.062927 1012.054504,857.398987 1011.302551,855.437622 
	C1010.256897,852.710083 1011.318237,849.821228 1015.032471,849.123047 
	C1020.570496,848.082153 1023.401428,849.501953 1024.730225,855.099731 
	C1022.664001,854.230408 1021.270386,853.328491 1019.776428,853.108704 
	C1018.414551,852.908264 1016.943787,853.447510 1015.521057,853.660767 
	C1016.325195,854.707520 1017.102783,855.776611 1017.955811,856.781799 
	C1018.126648,856.983032 1018.674500,856.835754 1018.896667,857.026245 
	C1021.147583,858.956360 1023.734314,860.675842 1025.335449,863.054443 
	C1025.732910,863.644897 1023.103943,867.650574 1021.527222,867.894348 
	C1018.581726,868.349792 1015.333740,867.402161 1012.329712,866.597412 
	C1011.393738,866.346741 1010.838379,864.675110 1010.108826,863.653992 
	C1010.356323,863.169250 1010.603882,862.684509 1010.851379,862.199707 
	C1013.318176,863.080811 1015.784912,863.961853 1018.601196,864.786255 
z"/>
<path fill="#282736" opacity="1.000000" stroke="none" 
	d="
M1087.036987,865.034912 
	C1087.222656,862.223511 1088.629761,861.586731 1091.027344,862.838745 
	C1092.186279,863.443909 1093.241943,864.484558 1094.449097,864.679321 
	C1095.326416,864.820923 1096.375366,863.898376 1097.347778,863.450195 
	C1096.897949,862.658752 1096.627930,861.610229 1095.954102,861.138977 
	C1095.044189,860.502563 1093.849976,860.190308 1092.732300,859.948853 
	C1089.230591,859.192261 1087.666748,857.164124 1088.092773,853.544617 
	C1088.563721,849.545837 1091.301514,849.001343 1094.553833,849.051697 
	C1097.994995,849.104980 1101.291016,849.294128 1101.613770,855.042908 
	C1099.574585,854.175476 1098.162231,853.234863 1096.651367,853.033813 
	C1095.313477,852.855713 1093.865967,853.500366 1092.466919,853.781799 
	C1093.331421,854.797607 1094.171875,855.835938 1095.080322,856.810791 
	C1095.266602,857.010681 1095.792969,856.871826 1096.017944,857.060974 
	C1098.171143,858.871521 1100.658936,860.466675 1102.206055,862.706970 
	C1102.682739,863.397217 1100.874268,866.944824 1099.575928,867.317932 
	C1096.800659,868.115479 1093.654907,867.919739 1090.703613,867.655334 
	C1089.599609,867.556458 1088.614380,866.133850 1087.289062,865.157593 
	C1087.003052,865.000366 1087.036987,865.034912 1087.036987,865.034912 
z"/>
<path fill="#282736" opacity="1.000000" stroke="none" 
	d="
M707.922241,856.552490 
	C707.944519,859.648621 708.089539,862.324280 707.851929,864.965637 
	C707.769897,865.878113 706.736328,866.704956 706.137512,867.570923 
	C705.431763,866.650635 704.274963,865.802551 704.113831,864.795227 
	C703.775757,862.681519 704.547180,860.243347 703.782532,858.382324 
	C702.837219,856.081238 700.794983,854.230835 699.226685,852.185791 
	C697.519775,854.119141 695.253784,855.809021 694.273865,858.059082 
	C693.412231,860.037415 694.152161,862.663940 693.853088,864.960999 
	C693.733154,865.881897 692.726562,866.687256 692.123535,867.545227 
	C691.449829,866.767334 690.227112,866.012390 690.193420,865.207764 
	C690.005920,860.724426 690.060120,856.227966 690.155518,851.738647 
	C690.170837,851.016785 690.619019,850.042969 691.188843,849.634705 
	C696.451904,845.864258 705.943237,849.585693 707.922241,856.552490 
z"/>
<path fill="#2C2B39" opacity="1.000000" stroke="none" 
	d="
M726.816528,865.076843 
	C721.680054,869.411743 717.919067,870.014893 714.117188,867.407593 
	C710.241211,864.749451 708.677551,859.441467 710.341309,854.590393 
	C711.860107,850.161926 714.995911,848.541870 721.166138,849.083191 
	C724.796265,849.401672 727.500427,850.749817 727.478271,856.130127 
	C725.482605,855.281860 723.757446,854.966553 722.617004,853.977112 
	C720.221497,851.898682 717.351746,850.986572 715.943176,853.944336 
	C714.723633,856.504944 714.413330,860.401672 715.511536,862.917664 
	C716.691589,865.621338 719.977356,865.640381 722.785095,863.576355 
	C725.786011,861.370361 726.191711,861.600586 726.816528,865.076843 
z"/>
<path fill="#282736" opacity="1.000000" stroke="none" 
	d="
M1086.986694,864.982483 
	C1086.607544,868.915161 1083.463867,868.284302 1081.335938,867.704163 
	C1079.974854,867.333008 1078.430786,865.224976 1078.168091,863.690369 
	C1077.422607,859.336304 1077.293701,854.876709 1076.921875,850.458740 
	C1076.428101,850.460388 1075.934326,850.461975 1075.440552,850.463623 
	C1076.227051,849.447632 1077.039307,848.450256 1077.792725,847.410217 
	C1078.510864,846.419312 1079.167480,845.383972 1079.851196,844.368103 
	C1080.613770,845.282104 1081.281982,846.302307 1082.161499,847.084839 
	C1083.440186,848.222656 1084.871338,849.189087 1086.735962,850.607849 
	C1080.161621,852.686646 1081.881592,857.891113 1082.307983,862.369995 
	C1082.402344,863.360779 1084.842163,864.128296 1086.619385,865.016724 
	C1087.036987,865.034912 1087.003052,865.000366 1086.986694,864.982483 
z"/>
<path fill="#2C2B39" opacity="1.000000" stroke="none" 
	d="
M946.885864,846.204285 
	C948.434082,847.897095 949.892761,849.232544 951.345703,850.562683 
	C945.103943,854.828430 945.136658,861.061462 951.716431,866.767578 
	C948.736511,868.476257 945.064148,869.122620 944.259155,865.671448 
	C942.790283,859.373779 940.949341,852.800049 943.147278,846.200073 
	C944.005371,843.623352 945.341980,843.515137 946.885864,846.204285 
z"/>
<path fill="#282736" opacity="1.000000" stroke="none" 
	d="
M862.663940,867.533813 
	C862.059631,867.130981 861.678284,866.944763 861.600159,866.671814 
	C859.741516,860.179077 858.459106,853.616943 860.031067,846.875061 
	C860.247375,845.947266 861.261719,845.205566 861.906494,844.377686 
	C862.612000,845.143494 863.269226,845.961975 864.033630,846.663635 
	C865.389526,847.908081 866.810547,849.081604 867.442383,849.627014 
	C866.231079,852.645203 864.216553,855.438477 864.240356,858.214294 
	C864.265564,861.153198 866.229553,864.075562 867.534729,867.498169 
	C866.652710,867.539673 864.840393,867.624878 862.663940,867.533813 
z"/>
<path fill="#2C2B39" opacity="1.000000" stroke="none" 
	d="
M751.126465,844.653442 
	C752.579529,841.274414 754.489807,841.283813 754.705017,844.457520 
	C755.174622,851.381348 754.937805,858.358704 754.795837,865.310181 
	C754.780212,866.070923 753.499512,866.805847 752.805664,867.552734 
	C752.209045,866.519897 751.119202,865.497864 751.096313,864.452454 
	C750.955322,857.996216 751.054688,851.534607 751.126465,844.653442 
z"/>
<path fill="#282736" opacity="1.000000" stroke="none" 
	d="
M596.004272,863.603699 
	C596.003357,859.830444 595.857666,856.493286 596.091187,853.182922 
	C596.182861,851.883057 596.965759,849.675232 597.706299,849.554626 
	C600.070435,849.169922 602.562378,849.570374 605.005005,849.667603 
	C604.894409,850.646362 604.988525,852.396790 604.642578,852.488525 
	C599.207581,853.930359 600.002869,858.233704 599.986511,862.183533 
	C599.983765,862.848755 600.177673,863.607300 599.924927,864.160034 
	C599.381592,865.348206 598.606445,866.430298 597.926208,867.555847 
	C597.287903,866.387390 596.649597,865.218933 596.004272,863.603699 
z"/>
<path fill="#2C2B39" opacity="1.000000" stroke="none" 
	d="
M1028.289185,866.152954 
	C1028.134277,861.294067 1027.978882,856.833313 1028.142944,852.384277 
	C1028.180054,851.380188 1029.329590,850.417053 1029.967041,849.435059 
	C1030.626587,850.396118 1031.802002,851.329529 1031.855225,852.323120 
	C1032.075928,856.439880 1032.042114,860.576965 1031.931519,864.702087 
	C1031.866089,867.141968 1031.116821,868.869812 1028.289185,866.152954 
z"/>
<path fill="#282736" opacity="1.000000" stroke="none" 
	d="
M983.150391,851.696411 
	C984.314270,848.837341 986.271851,848.505127 986.624207,851.177368 
	C987.249756,855.921265 986.914001,860.803406 986.783142,865.622314 
	C986.765137,866.284363 985.617126,866.915771 984.992371,867.561340 
	C984.357239,866.739563 983.209045,865.939575 983.173096,865.092407 
	C982.990112,860.771912 983.094543,856.439270 983.150391,851.696411 
z"/>
<path fill="#282736" opacity="1.000000" stroke="none" 
	d="
M856.893188,865.330994 
	C855.785095,868.153015 853.746216,868.524414 853.404053,865.958008 
	C852.757202,861.106140 853.116699,856.109253 853.255066,851.178101 
	C853.271729,850.583008 854.507751,850.022156 855.178711,849.445435 
	C855.759949,850.316467 856.805237,851.167603 856.843628,852.061951 
	C857.026917,856.339172 856.937256,860.628052 856.893188,865.330994 
z"/>
<path fill="#282736" opacity="1.000000" stroke="none" 
	d="
M610.938965,854.311279 
	C610.949829,857.754944 611.164978,860.762939 610.863892,863.718323 
	C610.727783,865.053772 609.564697,866.284546 608.867554,867.562805 
	C608.244873,866.214111 607.204163,864.901367 607.084412,863.509399 
	C606.815247,860.380249 606.805420,857.193909 607.087769,854.066772 
	C607.229370,852.498718 608.241760,851.009277 608.860352,849.484314 
	C609.551086,850.940918 610.241882,852.397461 610.938965,854.311279 
z"/>
<path fill="#000000" opacity="1.000000" stroke="none" 
	d="
M517.892639,813.032959 
	C503.741150,814.857239 491.224396,803.347107 489.817047,788.446350 
	C488.385071,773.285095 494.495209,762.308044 505.186951,757.337769 
	C521.854614,749.589294 541.395447,759.928833 542.968201,780.091614 
	C543.660217,788.963257 542.805420,797.532104 536.231750,804.530945 
	C531.347046,809.731628 525.860901,813.444336 517.892639,813.032959 
z"/>
<path fill="#000000" opacity="1.000000" stroke="none" 
	d="
M902.158569,771.962891 
	C906.484924,772.986511 910.666565,773.422791 914.171204,775.196716 
	C917.876282,777.071960 920.408020,780.382568 920.079895,785.229309 
	C919.777588,789.694031 920.010742,794.195068 920.008911,798.680115 
	C920.005859,806.239075 914.033691,812.501038 906.332092,813.019775 
	C889.696289,814.140015 879.864380,798.768127 886.950073,782.931458 
	C889.872253,776.400208 894.315063,772.284607 902.158569,771.962891 
z"/>
<path fill="#000000" opacity="1.000000" stroke="none" 
	d="
M746.180237,771.436279 
	C754.509155,771.957336 760.582581,775.488342 763.637268,783.162842 
	C768.592285,795.611816 764.659058,811.580994 747.235596,813.896484 
	C740.003113,814.857605 730.069824,808.024597 728.422791,799.539429 
	C726.813782,791.250244 726.797668,782.341064 734.369934,776.367126 
	C737.490845,773.905029 741.964722,773.158081 746.180237,771.436279 
z"/>
<path fill="#000000" opacity="1.000000" stroke="none" 
	d="
M531.102051,858.896240 
	C532.671082,856.434387 533.890869,853.475708 535.976868,852.614014 
	C537.274048,852.078186 540.766479,854.278198 541.648865,856.056519 
	C542.496948,857.765747 541.742432,860.765381 540.742981,862.710327 
	C540.142212,863.879456 537.152100,865.100891 536.242310,864.570801 
	C534.200867,863.381653 532.787720,861.113953 531.102051,858.896240 
z"/>
<path fill="#000000" opacity="1.000000" stroke="none" 
	d="
M560.600098,853.460693 
	C561.351868,854.373718 561.917480,855.007080 562.228149,855.747375 
	C563.585876,858.983154 563.443359,862.262146 560.143494,863.887329 
	C558.542969,864.675537 554.792358,864.311646 554.187439,863.241455 
	C552.911133,860.983643 552.070374,857.565613 552.881592,855.270874 
	C553.919861,852.333923 557.068359,851.237732 560.600098,853.460693 
z"/>
<path fill="#000000" opacity="1.000000" stroke="none" 
	d="
M644.010376,864.851318 
	C639.629272,863.941223 637.163879,861.482056 638.605774,857.454041 
	C639.353577,855.364868 642.315613,852.381592 643.788208,852.635803 
	C645.973389,853.013062 648.796570,855.603821 649.413269,857.796631 
	C650.379822,861.233154 648.438110,864.168274 644.010376,864.851318 
z"/>
<path fill="#000000" opacity="1.000000" stroke="none" 
	d="
M785.767517,852.707275 
	C788.182312,853.680237 791.687195,854.498840 792.024109,856.019409 
	C792.543762,858.365112 791.454163,861.616516 789.924561,863.631592 
	C789.177917,864.615112 784.553101,864.411255 784.030151,863.457886 
	C782.778198,861.175354 782.661621,858.131897 782.645874,855.392395 
	C782.641052,854.556213 784.456360,853.709473 785.767517,852.707275 
z"/>
<path fill="#000000" opacity="1.000000" stroke="none" 
	d="
M1041.612427,864.561157 
	C1040.239746,863.155518 1038.801392,862.053284 1038.291992,860.620605 
	C1036.988770,856.955444 1039.076416,853.185852 1042.481445,852.402405 
	C1045.515625,851.704346 1048.603638,854.180176 1048.950073,857.588440 
	C1049.426270,862.274719 1047.144165,864.604309 1041.612427,864.561157 
z"/>
<path fill="#000000" opacity="1.000000" stroke="none" 
	d="
M673.087524,847.974243 
	C678.265808,846.794800 682.438477,848.910400 683.742004,853.055115 
	C685.141724,857.505615 682.608154,863.219849 678.312012,864.538696 
	C674.389282,865.742920 671.051880,864.531372 668.992432,860.815674 
	C666.415588,856.166504 667.977356,851.044250 673.087524,847.974243 
z"/>
<path fill="#000000" opacity="1.000000" stroke="none" 
	d="
M910.870361,863.981445 
	C906.976562,865.724670 904.346313,864.552856 902.749756,861.227051 
	C901.051147,857.688660 902.895813,854.689758 905.702209,853.268555 
	C907.201233,852.509460 910.558350,853.490234 911.947998,854.844238 
	C914.872314,857.693787 914.569214,861.070679 910.870361,863.981445 
z"/>
<path fill="#000000" opacity="1.000000" stroke="none" 
	d="
M963.560547,852.424927 
	C964.055664,852.609497 964.204346,852.679993 964.352966,852.750610 
	C967.893250,854.433899 969.476746,857.419617 967.660217,860.767151 
	C966.640564,862.646118 963.223816,864.980103 961.826294,864.480652 
	C959.805847,863.758606 957.647278,860.790955 957.331055,858.531738 
	C956.823059,854.902466 959.087646,852.352905 963.560547,852.424927 
z"/>
<path fill="#000000" opacity="1.000000" stroke="none" 
	d="
M929.111145,852.256958 
	C930.258423,852.463257 931.453003,852.474060 931.747681,852.994446 
	C933.013245,855.229675 934.969482,857.684387 934.806152,859.922852 
	C934.678040,861.679504 932.021118,864.130981 930.089417,864.587036 
	C928.652466,864.926331 925.305786,862.778992 925.067200,861.359741 
	C924.644287,858.842773 925.834839,856.008484 926.595825,853.377991 
	C926.747375,852.854004 927.999695,852.648376 929.111145,852.256958 
z"/>
<path fill="#000000" opacity="1.000000" stroke="none" 
	d="
M741.127991,864.283936 
	C735.882019,864.787964 732.992981,863.013733 733.275879,859.036682 
	C733.427185,856.908325 734.864929,854.111267 736.591370,853.099915 
	C737.929688,852.316040 741.386597,853.182678 742.501770,854.500427 
	C743.784851,856.016663 743.832642,858.840942 743.801025,861.088501 
	C743.786804,862.102783 742.281555,863.096069 741.127991,864.283936 
z"/>
<path fill="#000000" opacity="1.000000" stroke="none" 
	d="
M765.350891,864.777466 
	C763.729980,863.433533 761.994873,862.369446 761.345764,860.843506 
	C759.840454,857.304626 761.901978,853.211548 765.352966,852.497009 
	C769.077637,851.725708 770.946228,854.013184 771.761475,857.217651 
	C772.838989,861.452332 770.715393,864.020447 765.350891,864.777466 
z"/>
</svg>