<svg width="36" height="40" viewBox="0 0 36 40" fill="none" xmlns="http://www.w3.org/2000/svg">
<path d="M19.0175 1.16948C18.4357 0.656478 17.5628 0.656478 16.9809 1.16948C13.1505 4.76046 8.54427 6.43943 2.48349 6.43945C1.65921 6.43945 1.02889 7.04571 1.02889 7.83854C1.02889 8.8179 1.02878 9.79735 0.980289 10.8233C0.786343 20.6637 0.544003 34.0484 17.5143 39.6914L17.9991 39.7847L18.4841 39.6914C35.5029 34.0484 35.2121 20.6171 35.0181 10.8233C34.9697 9.79735 34.9695 8.8179 34.9695 7.83854C34.9695 7.04571 34.3392 6.43945 33.5149 6.43945C27.4542 6.43944 22.848 4.76046 19.0175 1.16948ZM20.2978 22.2735C22.0063 24.7597 23.7759 27.0122 24.6302 28.0359C24.6911 28.0944 24.7215 28.182 24.6911 28.2696C24.6606 28.3573 24.5994 28.4162 24.5384 28.4747L22.1892 29.6154C22.1586 29.6445 22.0977 29.6447 22.0672 29.6447C21.9757 29.6447 21.884 29.6154 21.823 29.5278C20.8161 28.2701 19.5957 26.749 18.4058 25.1403C19.077 24.2043 19.7181 23.2388 20.2978 22.2735ZM18.0092 10.9247C19.3516 10.9247 20.4504 12.0947 20.5419 13.2647C24.5386 16.8917 18.1008 24.7894 14.226 29.5278C14.165 29.6154 14.0735 29.6447 13.9821 29.6447C13.9211 29.6447 13.8905 29.6446 13.8295 29.6154L11.4497 28.4747C11.3582 28.4454 11.2968 28.3574 11.2968 28.2696C11.2968 28.182 11.3277 28.0944 11.3886 28.0359C15.8432 22.8295 20.4501 15.5754 19.9314 13.4694C19.6872 12.9137 18.6194 12.8261 18.0092 12.8261C16.9415 12.8261 16.2399 13.0599 16.0873 13.4694C15.8432 14.4346 16.5752 16.1898 17.6736 18.1496C17.155 19.0855 16.5142 20.0799 15.8431 21.162C14.1651 18.0616 13.4635 15.078 15.5077 13.2353C15.5688 12.1239 16.6059 10.9248 18.0092 10.9247Z" fill="#0F359F"/>
</svg>
